<?xml version="1.0" encoding="utf-8"?>
<!-- Generator: Adobe Illustrator 27.5.0, SVG Export Plug-In . SVG Version: 6.00 Build 0)  -->
<svg version="1.1" id="Capa_1" xmlns="http://www.w3.org/2000/svg" xmlns:xlink="http://www.w3.org/1999/xlink" x="0px" y="0px"
	 viewBox="0 0 351.197 425.197" style="enable-background:new 0 0 351.197 425.197;" xml:space="preserve">
<!--<rect width="351.197" height="425.197"/>-->
<g>
	<g>
		<rect x="80.029" style="fill:#3C3C3B;" width="7.5" height="50.91"/>
		<rect x="265.029" style="fill:#3C3C3B;" width="7.5" height="50.91"/>
	</g>
	<g>
		<path style="fill:#282727;" d="M303.863,110.121c0,4.157-3.369,7.527-7.525,7.527H56.223c-4.156,0-7.525-3.37-7.525-7.527V55.555
			c0-4.157,3.369-7.527,7.525-7.527h240.115c4.156,0,7.525,3.37,7.525,7.527V110.121z"/>
		<g>
			<path style="fill:#FFD800;" d="M74.936,68.5c0-3.029,2.459-5.488,5.49-5.488l0,0c3.031,0,5.488,2.459,5.488,5.488v32.022
				c0,3.031-2.457,5.488-5.488,5.488l0,0c-3.031,0-5.49-2.457-5.49-5.488V68.5z"/>
			<g>
				<path style="fill:#FFD800;" d="M76.574,61.273c2.145-2.145,5.619-2.145,7.764,0l0,0c2.143,2.143,2.143,5.619,0,7.762
					L69.943,83.43c-2.143,2.143-5.619,2.143-7.764,0l0,0c-2.141-2.145-2.141-5.619,0-7.764L76.574,61.273z"/>
				<path style="fill:#FFD800;" d="M84.277,61.273c-2.145-2.145-5.621-2.145-7.764,0l0,0c-2.143,2.143-2.143,5.619,0,7.762
					L90.906,83.43c2.144,2.143,5.619,2.143,7.764,0l0,0c2.143-2.145,2.143-5.619,0-7.764L84.277,61.273z"/>
			</g>
		</g>
		<g>
			<g>
				<g>
					<path style="fill:#FFD800;" d="M172.614,85.302c0,0.039,0.003,0.091,0.01,0.155c0.006,0.064,0.009,0.136,0.009,0.213
						c0,0.077-0.003,0.148-0.009,0.213c-0.007,0.065-0.01,0.11-0.01,0.136c0,0.09-0.003,0.178-0.01,0.262
						c-0.007,0.084-0.01,0.164-0.01,0.242c-0.026,0.064-0.036,0.129-0.029,0.193c0.006,0.064,0.003,0.129-0.01,0.193
						c-0.026,0.143-0.045,0.284-0.058,0.426c-0.013,0.143-0.039,0.284-0.078,0.426c-0.064,0.22-0.122,0.43-0.174,0.629
						c-0.052,0.201-0.116,0.397-0.193,0.592c-0.22,0.541-0.491,1.032-0.813,1.471c-0.323,0.439-0.71,0.813-1.162,1.123
						c-0.258,0.182-0.526,0.336-0.803,0.465c-0.278,0.129-0.578,0.246-0.9,0.349c-0.129,0.038-0.262,0.067-0.397,0.087
						c-0.136,0.02-0.274,0.049-0.417,0.088c-0.064,0.012-0.125,0.019-0.184,0.019s-0.12,0.007-0.184,0.02
						c-0.052,0.013-0.104,0.017-0.155,0.01c-0.052-0.007-0.11-0.003-0.174,0.01c-0.026,0.013-0.065,0.017-0.116,0.01
						c-0.052-0.007-0.09-0.003-0.116,0.009c-0.104,0.026-0.232,0.033-0.387,0.02c-0.155-0.012-0.291-0.02-0.407-0.02h-4.511
						c-0.22,0-0.404-0.009-0.552-0.028c-0.149-0.02-0.255-0.106-0.32-0.261c-0.039-0.104-0.055-0.262-0.048-0.475
						c0.006-0.213,0.01-0.391,0.01-0.533V79.978c0-0.154-0.003-0.319-0.01-0.494c-0.006-0.174,0.022-0.313,0.087-0.416
						c0.051-0.077,0.148-0.142,0.29-0.193c0.025-0.013,0.051-0.016,0.077-0.01c0.026,0.006,0.051,0.004,0.078-0.01h5.209
						c0.077,0,0.158-0.003,0.242-0.01c0.084-0.006,0.158-0.003,0.223,0.01h0.232c0.064,0.025,0.136,0.035,0.213,0.029
						c0.078-0.007,0.148,0.003,0.213,0.029c0.078,0.025,0.152,0.035,0.223,0.028c0.071-0.007,0.145,0.003,0.223,0.029
						c0.181,0.038,0.355,0.074,0.523,0.106c0.168,0.032,0.329,0.08,0.484,0.145c0.142,0.065,0.284,0.123,0.426,0.175
						c0.142,0.052,0.277,0.116,0.407,0.194c0.322,0.206,0.619,0.406,0.891,0.6l0.116,0.116c0.129,0.104,0.245,0.22,0.348,0.349
						l0.174,0.154c0.064,0.104,0.139,0.203,0.223,0.301c0.084,0.097,0.158,0.197,0.223,0.3c0.167,0.271,0.316,0.559,0.445,0.862
						c0.129,0.303,0.245,0.623,0.349,0.958c0.064,0.168,0.106,0.342,0.126,0.522c0.019,0.182,0.048,0.361,0.087,0.543
						c0,0.064,0.003,0.119,0.01,0.164c0.006,0.045,0.01,0.094,0.01,0.145c0.026,0.078,0.035,0.162,0.029,0.252
						c-0.006,0.091,0.003,0.168,0.029,0.232V85.302z M169.594,86.231c0.026-0.064,0.039-0.168,0.039-0.31s-0.013-0.245-0.039-0.31
						v-0.368c-0.026-0.116-0.042-0.239-0.048-0.368c-0.007-0.129-0.023-0.245-0.048-0.348c-0.026-0.064-0.036-0.127-0.029-0.185
						c0.006-0.058-0.003-0.119-0.029-0.185c-0.065-0.205-0.126-0.402-0.184-0.59s-0.139-0.365-0.242-0.533
						c-0.193-0.309-0.416-0.577-0.668-0.803c-0.251-0.227-0.559-0.416-0.92-0.571c-0.116-0.039-0.232-0.074-0.349-0.106
						c-0.116-0.032-0.232-0.061-0.349-0.088c-0.104-0.012-0.197-0.021-0.281-0.028s-0.178-0.022-0.281-0.048
						c-0.052-0.014-0.104-0.017-0.155-0.01c-0.052,0.006-0.097,0.003-0.136-0.01h-0.426c-0.065-0.014-0.136-0.017-0.213-0.01
						c-0.078,0.006-0.155,0.01-0.232,0.01h-0.871c-0.026,0.025-0.068,0.031-0.126,0.02c-0.058-0.014-0.106-0.014-0.145,0
						c-0.064,0.025-0.129,0.048-0.193,0.066c-0.065,0.02-0.116,0.063-0.155,0.127c-0.052,0.064-0.078,0.154-0.078,0.271
						s0,0.245,0,0.388c0,0.168-0.003,0.342-0.01,0.522c-0.006,0.181-0.01,0.361-0.01,0.542v5.402c0,0.077-0.003,0.162-0.009,0.252
						c-0.007,0.09,0.003,0.168,0.029,0.232v0.193c0,0.09,0.003,0.178,0.01,0.262c0.006,0.084,0.022,0.158,0.048,0.223
						c0.078,0.154,0.225,0.235,0.445,0.242c0.219,0.006,0.445,0.009,0.678,0.009c0.503,0,1.013-0.003,1.53-0.009
						c0.516-0.007,0.955-0.081,1.316-0.223c0.478-0.194,0.855-0.452,1.133-0.775c0.277-0.322,0.513-0.723,0.707-1.2
						c0.051-0.103,0.09-0.22,0.116-0.349c0.026-0.129,0.058-0.258,0.097-0.387v-0.155c0.026-0.091,0.039-0.187,0.039-0.29
						s0.013-0.207,0.039-0.311V86.231z"/>
					<path style="fill:#FFD800;" d="M175.286,78.854h7.241h1.684c0.155,0,0.303,0.007,0.445,0.02
						c0.142,0.013,0.245,0.064,0.31,0.154c0.025,0.039,0.042,0.084,0.048,0.136c0.006,0.052,0.022,0.104,0.048,0.155v0.213
						c0.013,0.09,0.016,0.188,0.01,0.291c-0.007,0.104-0.01,0.199-0.01,0.29c0,0.103,0.003,0.203,0.01,0.3
						c0.006,0.097,0.003,0.19-0.01,0.281c-0.013,0.064-0.02,0.161-0.02,0.29c-0.039,0.155-0.104,0.259-0.193,0.31
						c-0.078,0.052-0.174,0.078-0.291,0.078c-0.116,0-0.239,0-0.368,0h-1.336h-3.504c-0.104,0-0.223-0.004-0.358-0.01
						c-0.135-0.007-0.271-0.007-0.406,0c-0.136,0.006-0.262,0.02-0.378,0.038c-0.116,0.02-0.2,0.049-0.252,0.087
						c-0.09,0.064-0.145,0.158-0.164,0.281c-0.02,0.123-0.029,0.262-0.029,0.416v1.104v0.563c0.026,0.104,0.052,0.189,0.078,0.261
						c0.026,0.071,0.071,0.126,0.136,0.165c0.077,0.051,0.167,0.08,0.271,0.086c0.103,0.008,0.213,0.01,0.329,0.01h1.045h3.331
						c0.09,0,0.203-0.002,0.338-0.01c0.136-0.006,0.268-0.006,0.397,0c0.129,0.008,0.249,0.018,0.358,0.029
						c0.109,0.014,0.19,0.039,0.242,0.078c0.064,0.039,0.109,0.115,0.135,0.232c0.026,0.115,0.042,0.242,0.048,0.377
						c0.006,0.136,0.006,0.275,0,0.416c-0.006,0.143-0.009,0.266-0.009,0.369c0,0.09,0,0.18,0,0.271
						c0,0.091-0.013,0.168-0.039,0.232c-0.026,0.103-0.077,0.187-0.155,0.251c-0.065,0.039-0.152,0.065-0.261,0.078
						c-0.11,0.013-0.232,0.02-0.368,0.02c-0.135,0-0.271-0.004-0.406-0.01c-0.136-0.006-0.249-0.01-0.339-0.01h-3.776
						c-0.155,0-0.303-0.003-0.445-0.01c-0.142-0.006-0.274,0-0.397,0.02c-0.123,0.02-0.226,0.058-0.31,0.115
						c-0.084,0.059-0.146,0.146-0.184,0.262c-0.013,0.064-0.02,0.133-0.02,0.203c0,0.072,0,0.14,0,0.204v0.735v1.084
						c0,0.155,0.01,0.295,0.029,0.416c0.02,0.123,0.074,0.217,0.164,0.281c0.039,0.039,0.087,0.062,0.145,0.068
						c0.058,0.006,0.119,0.022,0.184,0.048h0.194c0.064,0.013,0.135,0.017,0.213,0.01c0.077-0.007,0.148-0.01,0.213-0.01h0.813h3.64
						h1.026c0.103,0,0.203,0,0.3,0c0.097,0,0.184,0.02,0.261,0.058c0.103,0.039,0.174,0.11,0.213,0.214
						c0.026,0.064,0.042,0.142,0.048,0.231c0.006,0.092,0.01,0.188,0.01,0.291v0.891c0,0.154-0.007,0.301-0.02,0.436
						c-0.013,0.136-0.071,0.236-0.174,0.301c-0.077,0.064-0.177,0.096-0.3,0.096c-0.123,0-0.255,0-0.397,0h-1.452h-5.731h-1.529
						c-0.181,0-0.339-0.009-0.475-0.028c-0.135-0.02-0.235-0.081-0.3-0.185c-0.052-0.076-0.078-0.177-0.078-0.299
						c0-0.123,0-0.242,0-0.359v-1.394v-5.267v-4.221v-1.201c0-0.115,0-0.232,0-0.348c0-0.117,0.026-0.207,0.078-0.271
						c0.051-0.09,0.148-0.154,0.29-0.193c0.025-0.013,0.051-0.016,0.077-0.01C175.234,78.87,175.26,78.868,175.286,78.854z"/>
					<path style="fill:#FFD800;" d="M197.475,80.577c0.297,0.414,0.513,0.872,0.649,1.375c0.135,0.504,0.184,1.11,0.145,1.82
						c-0.026,0.284-0.071,0.545-0.136,0.784c-0.064,0.239-0.142,0.462-0.232,0.668c-0.026,0.052-0.049,0.101-0.068,0.146
						c-0.019,0.045-0.042,0.094-0.068,0.145c-0.052,0.091-0.1,0.178-0.145,0.262c-0.045,0.084-0.1,0.164-0.165,0.242
						c-0.259,0.361-0.571,0.655-0.939,0.881c-0.368,0.227-0.784,0.416-1.249,0.571c-0.143,0.052-0.29,0.084-0.445,0.097
						c-0.155,0.014-0.31,0.039-0.465,0.078c-0.078,0.012-0.155,0.019-0.232,0.019c-0.077,0-0.155,0.007-0.232,0.02h-0.793h-1.626
						c-0.168,0-0.346,0-0.533,0s-0.333,0.038-0.436,0.116c-0.129,0.09-0.194,0.248-0.194,0.475c0,0.226,0,0.448,0,0.668v2.556
						c0,0.155,0.003,0.323,0.01,0.503c0.006,0.182-0.022,0.323-0.087,0.426c-0.052,0.091-0.168,0.162-0.349,0.213
						c-0.09,0.026-0.188,0.033-0.29,0.02c-0.104-0.012-0.207-0.02-0.31-0.02h-1.123c-0.142,0-0.274-0.002-0.397-0.009
						c-0.123-0.007-0.223-0.042-0.3-0.106c-0.077-0.064-0.123-0.165-0.135-0.301c-0.013-0.135-0.02-0.273-0.02-0.416V80.229
						c0-0.181-0.003-0.395-0.01-0.639c-0.006-0.246,0.022-0.42,0.087-0.523c0.051-0.077,0.148-0.142,0.291-0.193
						c0.025-0.013,0.055-0.016,0.087-0.01c0.032,0.006,0.061,0.004,0.087-0.01h5.596c0.116,0,0.232-0.003,0.349-0.01
						c0.116-0.006,0.226,0.004,0.329,0.029h0.097c0.064,0.025,0.136,0.039,0.213,0.039c0.077,0,0.148,0.013,0.213,0.038
						c0.064,0.013,0.122,0.02,0.174,0.02c0.051,0,0.109,0.013,0.174,0.038c0.206,0.066,0.413,0.127,0.619,0.185
						c0.206,0.058,0.4,0.139,0.581,0.242c0.065,0.052,0.136,0.097,0.213,0.136c0.078,0.039,0.155,0.09,0.232,0.154
						c0.064,0.039,0.119,0.081,0.165,0.126c0.045,0.046,0.1,0.094,0.165,0.146l0.116,0.116
						C197.242,80.269,197.371,80.423,197.475,80.577z M195.345,83.753c0.026-0.142,0.036-0.319,0.029-0.532
						c-0.007-0.213-0.029-0.39-0.068-0.532c-0.078-0.284-0.174-0.51-0.29-0.678c-0.116-0.168-0.291-0.322-0.523-0.465
						c-0.194-0.116-0.433-0.203-0.717-0.262c-0.284-0.058-0.59-0.094-0.919-0.106c-0.329-0.013-0.668-0.016-1.017-0.009
						c-0.349,0.006-0.678,0.009-0.987,0.009c-0.039,0.013-0.075,0.023-0.107,0.029c-0.033,0.007-0.068,0.01-0.106,0.01
						c-0.129,0.052-0.213,0.129-0.252,0.232c-0.052,0.102-0.078,0.241-0.078,0.416c0,0.175,0,0.333,0,0.475v1.839
						c0,0.155,0,0.326,0,0.514s0.032,0.332,0.097,0.436c0.051,0.077,0.129,0.135,0.232,0.174c0.103,0.039,0.219,0.062,0.348,0.068
						c0.129,0.006,0.268,0.006,0.417,0c0.148-0.007,0.287-0.01,0.416-0.01c0.684,0,1.31-0.032,1.878-0.098
						c0.568-0.065,1-0.289,1.297-0.678c0.077-0.115,0.142-0.241,0.193-0.377C195.241,84.073,195.293,83.921,195.345,83.753z"/>
					<path style="fill:#FFD800;" d="M210.486,91.73c0.013,0.052,0.035,0.116,0.068,0.193c0.032,0.077,0.058,0.158,0.077,0.242
						c0.02,0.084,0.022,0.165,0.01,0.242c-0.013,0.077-0.058,0.136-0.136,0.174c-0.103,0.065-0.274,0.091-0.513,0.077
						c-0.239-0.012-0.436-0.02-0.591-0.02h-0.91c-0.104,0-0.197,0.004-0.281,0.01c-0.085,0.008-0.165-0.002-0.242-0.028
						c-0.142-0.039-0.246-0.116-0.31-0.232c-0.064-0.103-0.113-0.213-0.145-0.329c-0.032-0.116-0.074-0.232-0.126-0.349
						c-0.064-0.206-0.132-0.413-0.203-0.62c-0.071-0.205-0.145-0.406-0.223-0.6c-0.038-0.116-0.075-0.223-0.106-0.319
						c-0.033-0.097-0.068-0.185-0.107-0.262c-0.039-0.077-0.097-0.146-0.174-0.203c-0.078-0.058-0.181-0.101-0.31-0.126
						c-0.064,0-0.126-0.003-0.184-0.01c-0.058-0.006-0.12-0.01-0.184-0.01h-3.059c-0.22,0-0.455-0.003-0.707-0.01
						c-0.251-0.006-0.449,0.043-0.59,0.146c-0.104,0.077-0.174,0.181-0.213,0.31c-0.039,0.129-0.085,0.259-0.136,0.388
						c-0.104,0.22-0.19,0.448-0.261,0.687c-0.071,0.24-0.152,0.475-0.242,0.707c-0.052,0.129-0.1,0.266-0.145,0.406
						c-0.045,0.143-0.12,0.252-0.223,0.33c-0.065,0.051-0.158,0.087-0.281,0.106c-0.123,0.019-0.258,0.028-0.407,0.028
						c-0.148,0-0.3-0.002-0.455-0.01c-0.155-0.006-0.29-0.01-0.407-0.01c-0.167,0-0.371,0.004-0.61,0.01
						c-0.239,0.008-0.41-0.021-0.513-0.086c-0.065-0.039-0.1-0.098-0.107-0.175c-0.006-0.077,0-0.158,0.02-0.242
						c0.02-0.083,0.042-0.165,0.068-0.241c0.026-0.078,0.051-0.142,0.077-0.194c0.129-0.297,0.248-0.601,0.358-0.91
						c0.109-0.309,0.223-0.612,0.339-0.909c0.051-0.104,0.09-0.207,0.116-0.311c0.026-0.104,0.065-0.206,0.116-0.31
						c0.103-0.271,0.206-0.549,0.31-0.833c0.104-0.283,0.207-0.561,0.31-0.832c0.103-0.258,0.2-0.514,0.291-0.766
						c0.09-0.251,0.186-0.506,0.29-0.764c0.297-0.711,0.571-1.427,0.823-2.15c0.251-0.723,0.526-1.438,0.823-2.148
						c0.026-0.064,0.045-0.123,0.058-0.174c0.013-0.053,0.032-0.109,0.058-0.175c0.103-0.271,0.206-0.548,0.31-0.833
						c0.104-0.283,0.213-0.561,0.329-0.832c0.065-0.143,0.12-0.287,0.165-0.436c0.045-0.148,0.126-0.268,0.242-0.358
						c0.064-0.038,0.148-0.071,0.252-0.097c0.025-0.013,0.051-0.016,0.077-0.01c0.026,0.006,0.052,0.004,0.078-0.01h1.704
						c0.142,0,0.287-0.003,0.436-0.01c0.148-0.006,0.268,0.023,0.358,0.088c0.142,0.076,0.235,0.189,0.281,0.338
						c0.045,0.148,0.1,0.301,0.165,0.455c0.09,0.22,0.174,0.436,0.252,0.648c0.077,0.213,0.161,0.43,0.252,0.648
						c0.026,0.078,0.052,0.155,0.078,0.232c0.025,0.078,0.051,0.155,0.077,0.232c0.104,0.259,0.2,0.514,0.29,0.766
						c0.09,0.252,0.187,0.506,0.29,0.765c0.258,0.646,0.5,1.297,0.726,1.956c0.226,0.658,0.475,1.31,0.746,1.955
						c0.025,0.052,0.042,0.1,0.048,0.144c0.006,0.046,0.022,0.094,0.048,0.146c0.078,0.207,0.155,0.413,0.232,0.62
						c0.077,0.206,0.155,0.413,0.232,0.619c0.051,0.104,0.09,0.203,0.116,0.301c0.025,0.096,0.058,0.196,0.097,0.299
						c0.167,0.414,0.322,0.827,0.465,1.24c0.142,0.413,0.296,0.819,0.464,1.219c0.026,0.039,0.039,0.075,0.039,0.107
						C210.448,91.656,210.46,91.691,210.486,91.73z M205.472,87.296c0.168-0.064,0.245-0.174,0.232-0.328
						c-0.013-0.155-0.052-0.304-0.116-0.445c-0.026-0.053-0.038-0.101-0.038-0.146c0-0.045-0.013-0.093-0.039-0.145
						c-0.168-0.438-0.323-0.884-0.465-1.336c-0.142-0.451-0.303-0.903-0.484-1.355c-0.026-0.064-0.052-0.145-0.078-0.242
						c-0.026-0.097-0.058-0.187-0.097-0.271c-0.039-0.083-0.084-0.157-0.136-0.223c-0.052-0.065-0.116-0.096-0.193-0.096
						c-0.026,0.025-0.052,0.045-0.078,0.058c-0.026,0.013-0.052,0.032-0.077,0.058c-0.104,0.13-0.178,0.285-0.223,0.465
						c-0.045,0.182-0.1,0.355-0.165,0.523c-0.155,0.361-0.294,0.729-0.417,1.104c-0.123,0.375-0.255,0.748-0.397,1.123
						c-0.052,0.129-0.097,0.255-0.135,0.377c-0.039,0.123-0.078,0.256-0.116,0.397c-0.039,0.104-0.033,0.22,0.019,0.349
						c0.064,0.09,0.171,0.143,0.32,0.154c0.148,0.014,0.3,0.02,0.455,0.02h1.472c0.116,0,0.245,0,0.387,0
						C205.246,87.335,205.368,87.322,205.472,87.296z"/>
					<path style="fill:#FFD800;" d="M223.691,92.214c0.026,0.078,0.022,0.148-0.01,0.213c-0.032,0.065-0.068,0.11-0.107,0.137
						c-0.078,0.064-0.184,0.094-0.319,0.086c-0.136-0.006-0.274-0.01-0.417-0.01h-1.065c-0.206,0-0.387-0.009-0.542-0.028
						c-0.155-0.02-0.271-0.094-0.349-0.223c-0.104-0.167-0.162-0.374-0.174-0.62c-0.013-0.244-0.045-0.477-0.097-0.697
						c0-0.051-0.003-0.1-0.01-0.145c-0.006-0.045-0.01-0.087-0.01-0.126c-0.039-0.155-0.058-0.319-0.058-0.493
						c0-0.175-0.013-0.332-0.039-0.475c-0.013-0.039-0.02-0.098-0.02-0.174c-0.026-0.143-0.048-0.287-0.067-0.437
						c-0.02-0.147-0.049-0.294-0.087-0.436c-0.104-0.297-0.226-0.562-0.368-0.794c-0.142-0.232-0.342-0.406-0.601-0.522
						c-0.064-0.026-0.129-0.045-0.193-0.058c-0.065-0.014-0.136-0.033-0.213-0.059c-0.232-0.078-0.501-0.116-0.804-0.116
						c-0.303,0-0.604,0-0.9,0h-1.587c-0.104,0.026-0.194,0.046-0.271,0.058c-0.078,0.014-0.143,0.053-0.194,0.117
						c-0.104,0.129-0.148,0.328-0.136,0.6c0.013,0.271,0.02,0.517,0.02,0.736v2.479c0,0.104-0.003,0.209-0.01,0.318
						c-0.006,0.11-0.01,0.217-0.01,0.32s0,0.197,0,0.28c0,0.084-0.013,0.158-0.039,0.223c-0.039,0.116-0.116,0.194-0.232,0.232
						c-0.064,0.026-0.142,0.038-0.232,0.038c-0.09,0-0.187,0-0.29,0h-0.872c-0.207,0-0.426,0.004-0.658,0.01
						c-0.232,0.008-0.407-0.035-0.523-0.125c-0.104-0.064-0.155-0.184-0.155-0.358s0-0.345,0-0.513V79.881
						c0-0.142-0.003-0.29-0.01-0.445c-0.006-0.155,0.022-0.278,0.087-0.368c0.051-0.077,0.148-0.142,0.29-0.193
						c0.025-0.013,0.055-0.016,0.087-0.01c0.032,0.006,0.061,0.004,0.087-0.01h6.584c0.206,0,0.403,0.004,0.59,0.01
						c0.187,0.006,0.365,0.029,0.533,0.068c0.064,0.025,0.132,0.038,0.203,0.038c0.071,0,0.139,0.013,0.203,0.038
						c0.09,0.027,0.181,0.053,0.271,0.078s0.181,0.059,0.271,0.097c0.322,0.142,0.619,0.316,0.891,0.522
						c0.271,0.207,0.497,0.445,0.677,0.717c0.052,0.064,0.094,0.133,0.126,0.203c0.032,0.071,0.074,0.139,0.126,0.203
						c0.103,0.182,0.181,0.368,0.232,0.563c0.051,0.193,0.109,0.406,0.174,0.639c0.013,0.051,0.016,0.104,0.01,0.154
						c-0.007,0.052,0.003,0.104,0.029,0.155v0.175c0.026,0.103,0.032,0.229,0.02,0.377c-0.013,0.148-0.033,0.268-0.058,0.357
						c-0.026,0.104-0.039,0.197-0.039,0.281s-0.013,0.172-0.039,0.262c-0.065,0.193-0.129,0.377-0.193,0.552
						c-0.065,0.175-0.149,0.339-0.252,0.493c-0.026,0.039-0.058,0.081-0.097,0.127c-0.039,0.045-0.071,0.086-0.097,0.125
						c-0.039,0.052-0.081,0.104-0.125,0.155c-0.045,0.052-0.094,0.097-0.146,0.136c-0.077,0.064-0.155,0.129-0.232,0.193
						c-0.078,0.065-0.162,0.129-0.252,0.193c-0.052,0.039-0.104,0.081-0.155,0.126c-0.052,0.046-0.09,0.101-0.116,0.165
						c-0.026,0.077-0.013,0.142,0.038,0.193c0.052,0.052,0.097,0.09,0.136,0.116c0.129,0.103,0.258,0.206,0.387,0.31
						c0.129,0.104,0.239,0.227,0.329,0.367c0.155,0.221,0.277,0.446,0.368,0.678c0.09,0.232,0.174,0.498,0.252,0.795
						c0.026,0.115,0.042,0.238,0.048,0.367c0.006,0.129,0.022,0.252,0.048,0.368c0,0.077,0.003,0.151,0.01,0.223
						c0.006,0.071,0.01,0.146,0.01,0.223c0.013,0.052,0.016,0.107,0.01,0.165c-0.007,0.058-0.003,0.119,0.009,0.184
						c0.013,0.052,0.016,0.104,0.01,0.154c-0.006,0.053-0.003,0.11,0.01,0.175c0.026,0.129,0.039,0.265,0.039,0.407
						c0,0.142,0.013,0.277,0.039,0.406l0.058,0.348c0.025,0.117,0.051,0.232,0.077,0.35
						C223.64,92.001,223.666,92.111,223.691,92.214z M220.497,83.481c0.026-0.141,0.029-0.315,0.01-0.521
						c-0.02-0.207-0.042-0.361-0.068-0.465c-0.026-0.052-0.039-0.098-0.039-0.137c0-0.038-0.013-0.076-0.039-0.115
						c-0.155-0.4-0.439-0.691-0.852-0.871c-0.22-0.104-0.472-0.162-0.755-0.175c-0.284-0.013-0.581-0.02-0.891-0.02h-2.246
						c-0.026,0.026-0.052,0.036-0.077,0.029c-0.026-0.007-0.052-0.01-0.078-0.01c-0.155,0.038-0.258,0.104-0.31,0.194
						c-0.065,0.104-0.094,0.234-0.087,0.396c0.006,0.161,0.01,0.319,0.01,0.475v1.801c0,0.154,0,0.309,0,0.465
						c0,0.154,0.032,0.277,0.097,0.367c0.052,0.078,0.136,0.129,0.252,0.154c0.116,0.026,0.245,0.046,0.387,0.059
						c0.142,0.014,0.29,0.017,0.445,0.01c0.155-0.006,0.291-0.01,0.407-0.01h1.142c0.09,0,0.187,0.004,0.29,0.01
						c0.103,0.007,0.194-0.003,0.271-0.029h0.252c0.103-0.025,0.203-0.039,0.3-0.039c0.097,0,0.19-0.012,0.281-0.038
						c0.219-0.065,0.413-0.149,0.581-0.252c0.167-0.102,0.31-0.238,0.426-0.406c0.078-0.116,0.136-0.245,0.174-0.388
						C220.419,83.824,220.458,83.663,220.497,83.481z"/>
					<path style="fill:#FFD800;" d="M232.888,78.854h1.975c0.168,0,0.332,0.004,0.494,0.01c0.161,0.006,0.293,0.042,0.397,0.107
						c0.039,0.026,0.068,0.067,0.087,0.126c0.02,0.059,0.036,0.119,0.049,0.184v0.098c0.013,0.051,0.019,0.109,0.019,0.174
						c0,0.065,0,0.129,0,0.193v0.756c0,0.09,0.003,0.177,0.01,0.261c0.006,0.084-0.003,0.165-0.029,0.242
						c-0.065,0.22-0.194,0.335-0.388,0.349c-0.193,0.013-0.426,0.02-0.697,0.02h-1.975c-0.258,0-0.481,0.01-0.668,0.028
						c-0.187,0.02-0.313,0.14-0.378,0.358c-0.013,0.064-0.013,0.123,0,0.174c0.013,0.053,0.006,0.11-0.02,0.175
						c-0.013,0.077-0.016,0.165-0.01,0.261c0.006,0.098,0.01,0.185,0.01,0.262v1.724v5.576v1.819c0,0.207-0.01,0.385-0.029,0.533
						c-0.02,0.148-0.1,0.255-0.242,0.319c-0.09,0.026-0.193,0.038-0.31,0.038s-0.226,0-0.329,0h-1.317
						c-0.142,0-0.274-0.006-0.397-0.019c-0.122-0.013-0.216-0.058-0.281-0.136c-0.064-0.104-0.097-0.235-0.097-0.396
						c0-0.162,0-0.326,0-0.494v-1.936v-5.383V82.63c0-0.09,0.003-0.184,0.01-0.281c0.006-0.096-0.003-0.184-0.029-0.261
						c-0.013-0.064-0.013-0.122,0-0.175c0.013-0.051,0.006-0.103-0.019-0.154c-0.065-0.219-0.197-0.339-0.397-0.358
						c-0.2-0.019-0.436-0.028-0.707-0.028h-1.8c-0.143,0-0.3,0.003-0.475,0.01c-0.174,0.006-0.313-0.004-0.416-0.029
						c-0.104-0.039-0.181-0.098-0.232-0.175c-0.039-0.064-0.061-0.147-0.068-0.251c-0.007-0.104-0.01-0.207-0.01-0.31v-0.949
						c0-0.167,0.01-0.315,0.029-0.445c0.019-0.129,0.08-0.225,0.184-0.289c0.039-0.026,0.11-0.053,0.213-0.078h0.097H232.888z"/>
					<path style="fill:#FFD800;" d="M237.98,78.835h1.646c0.142,0,0.281,0.007,0.417,0.02c0.135,0.014,0.235,0.059,0.3,0.136
						c0.064,0.103,0.1,0.235,0.107,0.398c0.006,0.16,0.009,0.325,0.009,0.493v1.956v3.988v0.678c0,0.051-0.003,0.105-0.009,0.164
						c-0.007,0.059-0.004,0.113,0.009,0.164v0.311c0,0.116-0.003,0.238-0.009,0.367c-0.007,0.13,0.003,0.246,0.029,0.35
						c0,0.09,0.006,0.161,0.02,0.213c0.025,0.142,0.048,0.283,0.068,0.426c0.019,0.143,0.055,0.283,0.106,0.426
						c0.142,0.336,0.326,0.613,0.552,0.832c0.226,0.221,0.526,0.395,0.9,0.523c0.103,0.025,0.206,0.045,0.31,0.059
						c0.103,0.012,0.207,0.031,0.31,0.058c0.064,0.026,0.122,0.036,0.174,0.028c0.052-0.006,0.11-0.002,0.174,0.01
						c0.052,0.014,0.136,0.017,0.252,0.01c0.116-0.006,0.193-0.016,0.232-0.029h0.29c0.104-0.025,0.206-0.045,0.31-0.058
						c0.103-0.013,0.2-0.032,0.29-0.058c0.181-0.039,0.322-0.084,0.426-0.136c0.232-0.104,0.436-0.242,0.61-0.417
						c0.174-0.174,0.313-0.37,0.417-0.59c0.142-0.336,0.226-0.732,0.251-1.191c0.026-0.457,0.039-0.932,0.039-1.423v-3.853v-2.595
						c0-0.181-0.003-0.381-0.01-0.601c-0.007-0.219,0.029-0.381,0.106-0.484c0.064-0.076,0.155-0.125,0.271-0.145
						c0.116-0.019,0.245-0.029,0.387-0.029h1.239c0.103,0,0.203-0.003,0.3-0.01c0.097-0.006,0.19,0.004,0.281,0.029
						c0.181,0.039,0.297,0.104,0.349,0.193c0.064,0.104,0.094,0.249,0.087,0.436c-0.007,0.188-0.01,0.358-0.01,0.514v2.594v3.912
						c0,0.49-0.007,0.968-0.02,1.433c-0.013,0.464-0.071,0.884-0.174,1.259c-0.181,0.606-0.41,1.133-0.687,1.578
						c-0.278,0.445-0.643,0.822-1.094,1.133c-0.4,0.283-0.871,0.516-1.414,0.696c-0.116,0.038-0.235,0.071-0.358,0.097
						c-0.123,0.025-0.242,0.052-0.358,0.078c-0.077,0.025-0.152,0.038-0.223,0.038s-0.145,0.013-0.223,0.039
						c-0.155,0.025-0.329,0.045-0.522,0.058c-0.194,0.014-0.381,0.02-0.562,0.02c-1.227,0.013-2.272-0.139-3.137-0.455
						c-0.865-0.316-1.542-0.829-2.033-1.539c-0.168-0.232-0.307-0.475-0.416-0.727c-0.11-0.252-0.21-0.525-0.3-0.822
						c-0.026-0.065-0.039-0.119-0.039-0.165c0-0.045-0.013-0.1-0.039-0.165c-0.104-0.36-0.155-0.768-0.155-1.219
						c0-0.452,0-0.904,0-1.355v-5.402v-1.355c0-0.129,0-0.254,0-0.377c0-0.123,0.019-0.223,0.058-0.301
						c0.078-0.09,0.181-0.154,0.31-0.193c0.025,0,0.051,0,0.077,0C237.928,78.854,237.954,78.849,237.98,78.835z"/>
					<path style="fill:#FFD800;" d="M263.5,92.214c0.026,0.078,0.022,0.148-0.01,0.213c-0.032,0.065-0.068,0.11-0.107,0.137
						c-0.078,0.064-0.184,0.094-0.319,0.086c-0.136-0.006-0.274-0.01-0.417-0.01h-1.065c-0.207,0-0.387-0.009-0.542-0.028
						c-0.155-0.02-0.271-0.094-0.349-0.223c-0.103-0.167-0.162-0.374-0.174-0.62c-0.013-0.244-0.045-0.477-0.097-0.697
						c0-0.051-0.003-0.1-0.01-0.145c-0.007-0.045-0.01-0.087-0.01-0.126c-0.039-0.155-0.058-0.319-0.058-0.493
						c0-0.175-0.013-0.332-0.039-0.475c-0.013-0.039-0.02-0.098-0.02-0.174c-0.026-0.143-0.048-0.287-0.067-0.437
						c-0.02-0.147-0.049-0.294-0.087-0.436c-0.104-0.297-0.226-0.562-0.368-0.794c-0.142-0.232-0.342-0.406-0.601-0.522
						c-0.064-0.026-0.129-0.045-0.193-0.058c-0.065-0.014-0.136-0.033-0.213-0.059c-0.232-0.078-0.5-0.116-0.804-0.116
						c-0.303,0-0.604,0-0.9,0h-1.587c-0.104,0.026-0.194,0.046-0.271,0.058c-0.078,0.014-0.143,0.053-0.194,0.117
						c-0.104,0.129-0.148,0.328-0.136,0.6c0.013,0.271,0.02,0.517,0.02,0.736v2.479c0,0.104-0.003,0.209-0.01,0.318
						c-0.006,0.11-0.01,0.217-0.01,0.32s0,0.197,0,0.28c0,0.084-0.013,0.158-0.039,0.223c-0.038,0.116-0.116,0.194-0.232,0.232
						c-0.064,0.026-0.142,0.038-0.232,0.038s-0.187,0-0.29,0h-0.871c-0.207,0-0.426,0.004-0.658,0.01
						c-0.232,0.008-0.407-0.035-0.523-0.125c-0.104-0.064-0.155-0.184-0.155-0.358s0-0.345,0-0.513V79.881
						c0-0.142-0.003-0.29-0.01-0.445c-0.006-0.155,0.022-0.278,0.087-0.368c0.051-0.077,0.148-0.142,0.29-0.193
						c0.025-0.013,0.055-0.016,0.087-0.01c0.032,0.006,0.061,0.004,0.087-0.01h6.584c0.206,0,0.403,0.004,0.59,0.01
						c0.187,0.006,0.365,0.029,0.533,0.068c0.064,0.025,0.132,0.038,0.203,0.038c0.071,0,0.139,0.013,0.203,0.038
						c0.09,0.027,0.181,0.053,0.271,0.078s0.181,0.059,0.271,0.097c0.322,0.142,0.619,0.316,0.891,0.522
						c0.271,0.207,0.497,0.445,0.677,0.717c0.052,0.064,0.094,0.133,0.126,0.203c0.032,0.071,0.074,0.139,0.126,0.203
						c0.103,0.182,0.181,0.368,0.232,0.563c0.051,0.193,0.109,0.406,0.174,0.639c0.013,0.051,0.016,0.104,0.01,0.154
						c-0.007,0.052,0.003,0.104,0.029,0.155v0.175c0.026,0.103,0.032,0.229,0.02,0.377c-0.013,0.148-0.033,0.268-0.058,0.357
						c-0.026,0.104-0.039,0.197-0.039,0.281s-0.013,0.172-0.039,0.262c-0.065,0.193-0.129,0.377-0.193,0.552
						c-0.065,0.175-0.149,0.339-0.252,0.493c-0.026,0.039-0.058,0.081-0.097,0.127c-0.039,0.045-0.071,0.086-0.097,0.125
						c-0.039,0.052-0.081,0.104-0.126,0.155c-0.045,0.052-0.094,0.097-0.146,0.136c-0.077,0.064-0.155,0.129-0.232,0.193
						c-0.078,0.065-0.162,0.129-0.252,0.193c-0.052,0.039-0.104,0.081-0.155,0.126c-0.052,0.046-0.09,0.101-0.116,0.165
						c-0.026,0.077-0.013,0.142,0.039,0.193c0.051,0.052,0.097,0.09,0.136,0.116c0.129,0.103,0.258,0.206,0.387,0.31
						c0.129,0.104,0.239,0.227,0.329,0.367c0.155,0.221,0.277,0.446,0.368,0.678c0.09,0.232,0.174,0.498,0.252,0.795
						c0.026,0.115,0.042,0.238,0.048,0.367c0.006,0.129,0.022,0.252,0.048,0.368c0,0.077,0.003,0.151,0.01,0.223
						c0.006,0.071,0.01,0.146,0.01,0.223c0.013,0.052,0.016,0.107,0.01,0.165c-0.007,0.058-0.003,0.119,0.009,0.184
						c0.013,0.052,0.016,0.104,0.01,0.154c-0.006,0.053-0.004,0.11,0.01,0.175c0.026,0.129,0.039,0.265,0.039,0.407
						c0,0.142,0.013,0.277,0.039,0.406l0.058,0.348c0.025,0.117,0.051,0.232,0.077,0.35C263.448,92.001,263.474,92.111,263.5,92.214
						z M260.305,83.481c0.026-0.141,0.029-0.315,0.01-0.521c-0.02-0.207-0.042-0.361-0.068-0.465
						c-0.026-0.052-0.039-0.098-0.039-0.137c0-0.038-0.013-0.076-0.039-0.115c-0.155-0.4-0.439-0.691-0.852-0.871
						c-0.22-0.104-0.472-0.162-0.755-0.175c-0.284-0.013-0.581-0.02-0.891-0.02h-2.246c-0.026,0.026-0.052,0.036-0.077,0.029
						c-0.026-0.007-0.052-0.01-0.078-0.01c-0.155,0.038-0.258,0.104-0.309,0.194c-0.065,0.104-0.094,0.234-0.087,0.396
						c0.006,0.161,0.01,0.319,0.01,0.475v1.801c0,0.154,0,0.309,0,0.465c0,0.154,0.032,0.277,0.097,0.367
						c0.052,0.078,0.136,0.129,0.252,0.154c0.116,0.026,0.245,0.046,0.387,0.059c0.142,0.014,0.29,0.017,0.445,0.01
						c0.155-0.006,0.29-0.01,0.407-0.01h1.142c0.09,0,0.187,0.004,0.29,0.01c0.103,0.007,0.194-0.003,0.271-0.029h0.252
						c0.103-0.025,0.203-0.039,0.3-0.039c0.097,0,0.19-0.012,0.281-0.038c0.219-0.065,0.413-0.149,0.581-0.252
						c0.167-0.102,0.31-0.238,0.426-0.406c0.078-0.116,0.136-0.245,0.174-0.388C260.227,83.824,260.266,83.663,260.305,83.481z"/>
					<path style="fill:#FFD800;" d="M266.365,78.854h7.241h1.685c0.155,0,0.303,0.007,0.445,0.02s0.245,0.064,0.31,0.154
						c0.025,0.039,0.042,0.084,0.048,0.136c0.006,0.052,0.022,0.104,0.048,0.155v0.213c0.013,0.09,0.016,0.188,0.01,0.291
						c-0.007,0.104-0.01,0.199-0.01,0.29c0,0.103,0.003,0.203,0.01,0.3c0.006,0.097,0.003,0.19-0.01,0.281
						c-0.013,0.064-0.02,0.161-0.02,0.29c-0.039,0.155-0.104,0.259-0.193,0.31c-0.078,0.052-0.174,0.078-0.29,0.078
						c-0.116,0-0.239,0-0.368,0h-1.336h-3.504c-0.103,0-0.223-0.004-0.358-0.01c-0.135-0.007-0.271-0.007-0.406,0
						c-0.136,0.006-0.262,0.02-0.378,0.038c-0.116,0.02-0.2,0.049-0.251,0.087c-0.09,0.064-0.145,0.158-0.165,0.281
						c-0.02,0.123-0.029,0.262-0.029,0.416v1.104v0.563c0.026,0.104,0.052,0.189,0.078,0.261c0.026,0.071,0.071,0.126,0.136,0.165
						c0.077,0.051,0.167,0.08,0.271,0.086c0.103,0.008,0.213,0.01,0.329,0.01h1.045h3.331c0.09,0,0.203-0.002,0.338-0.01
						c0.136-0.006,0.268-0.006,0.397,0c0.129,0.008,0.249,0.018,0.358,0.029c0.109,0.014,0.19,0.039,0.242,0.078
						c0.065,0.039,0.109,0.115,0.135,0.232c0.026,0.115,0.042,0.242,0.048,0.377c0.006,0.136,0.006,0.275,0,0.416
						c-0.006,0.143-0.009,0.266-0.009,0.369c0,0.09,0,0.18,0,0.271c0,0.091-0.013,0.168-0.039,0.232
						c-0.026,0.103-0.077,0.187-0.155,0.251c-0.065,0.039-0.152,0.065-0.261,0.078c-0.11,0.013-0.232,0.02-0.368,0.02
						c-0.135,0-0.271-0.004-0.406-0.01c-0.136-0.006-0.249-0.01-0.339-0.01h-3.776c-0.155,0-0.303-0.003-0.445-0.01
						c-0.142-0.006-0.275,0-0.397,0.02c-0.123,0.02-0.226,0.058-0.31,0.115c-0.084,0.059-0.145,0.146-0.184,0.262
						c-0.013,0.064-0.02,0.133-0.02,0.203c0,0.072,0,0.14,0,0.204v0.735v1.084c0,0.155,0.01,0.295,0.029,0.416
						c0.02,0.123,0.074,0.217,0.165,0.281c0.038,0.039,0.087,0.062,0.145,0.068c0.058,0.006,0.119,0.022,0.184,0.048h0.194
						c0.065,0.013,0.135,0.017,0.213,0.01c0.077-0.007,0.148-0.01,0.213-0.01h0.813h3.64h1.026c0.103,0,0.203,0,0.3,0
						c0.097,0,0.184,0.02,0.261,0.058c0.103,0.039,0.174,0.11,0.213,0.214c0.026,0.064,0.042,0.142,0.048,0.231
						c0.006,0.092,0.01,0.188,0.01,0.291v0.891c0,0.154-0.007,0.301-0.02,0.436c-0.013,0.136-0.071,0.236-0.174,0.301
						c-0.077,0.064-0.177,0.096-0.3,0.096c-0.123,0-0.255,0-0.397,0h-1.452h-5.731h-1.529c-0.181,0-0.339-0.009-0.475-0.028
						c-0.135-0.02-0.235-0.081-0.3-0.185c-0.052-0.076-0.078-0.177-0.078-0.299c0-0.123,0-0.242,0-0.359v-1.394v-5.267v-4.221
						v-1.201c0-0.115,0-0.232,0-0.348c0-0.117,0.026-0.207,0.078-0.271c0.051-0.09,0.148-0.154,0.29-0.193
						c0.025-0.013,0.051-0.016,0.077-0.01C266.313,78.87,266.338,78.868,266.365,78.854z"/>
					<path style="fill:#FFD800;" d="M282.939,78.563c2.504-0.038,4.227,0.704,5.169,2.227c0.129,0.207,0.229,0.42,0.3,0.64
						c0.071,0.22,0.139,0.458,0.203,0.716c0.026,0.104,0.036,0.223,0.029,0.359c-0.007,0.135-0.036,0.234-0.087,0.299
						c-0.065,0.078-0.155,0.127-0.271,0.146c-0.116,0.018-0.245,0.028-0.387,0.028h-1.22c-0.116,0-0.232,0-0.349,0
						c-0.116,0-0.213-0.013-0.29-0.038c-0.155-0.064-0.251-0.168-0.291-0.311c-0.039-0.142-0.09-0.283-0.155-0.426
						c-0.052-0.129-0.123-0.264-0.213-0.406c-0.09-0.143-0.188-0.252-0.291-0.33c-0.181-0.129-0.355-0.238-0.522-0.328
						c-0.155-0.064-0.346-0.119-0.571-0.165c-0.226-0.045-0.459-0.074-0.697-0.087c-0.239-0.013-0.474-0.006-0.706,0.02
						c-0.232,0.025-0.439,0.077-0.62,0.154c-0.297,0.129-0.526,0.281-0.688,0.455c-0.162,0.174-0.274,0.436-0.339,0.784
						c-0.026,0.091-0.032,0.191-0.019,0.3c0.013,0.11,0.032,0.197,0.058,0.262c0.103,0.271,0.248,0.462,0.436,0.571
						c0.187,0.11,0.41,0.216,0.668,0.319c0.142,0.064,0.287,0.113,0.436,0.146c0.148,0.032,0.3,0.074,0.455,0.126
						c0.349,0.115,0.706,0.217,1.075,0.3c0.368,0.084,0.732,0.178,1.094,0.28c0.064,0.026,0.129,0.039,0.194,0.039
						c0.064,0,0.129,0.014,0.193,0.039c0.258,0.09,0.526,0.174,0.804,0.252c0.277,0.077,0.526,0.188,0.746,0.328
						c0.348,0.221,0.648,0.439,0.9,0.659c0.252,0.22,0.487,0.503,0.707,0.852c0.065,0.104,0.119,0.22,0.164,0.349
						c0.045,0.129,0.093,0.258,0.145,0.387c0.013,0.039,0.02,0.075,0.02,0.108c0,0.032,0.006,0.06,0.02,0.087
						c0.051,0.206,0.077,0.464,0.077,0.774c0.026,0.064,0.026,0.129,0,0.193v0.349c-0.026,0.142-0.048,0.278-0.068,0.407
						c-0.019,0.129-0.048,0.258-0.087,0.387c-0.078,0.232-0.162,0.445-0.252,0.639c-0.09,0.193-0.2,0.381-0.329,0.562
						c-0.052,0.065-0.104,0.12-0.155,0.165c-0.052,0.045-0.097,0.1-0.135,0.164c-0.065,0.078-0.136,0.152-0.213,0.223
						c-0.077,0.071-0.162,0.139-0.251,0.203c-0.065,0.053-0.133,0.104-0.204,0.155c-0.071,0.052-0.145,0.104-0.223,0.155
						c-0.219,0.143-0.448,0.258-0.687,0.348c-0.239,0.091-0.487,0.182-0.746,0.271c-0.181,0.065-0.368,0.106-0.562,0.126
						c-0.193,0.019-0.387,0.048-0.581,0.087c-0.091,0.025-0.178,0.035-0.262,0.029c-0.084-0.007-0.165,0.003-0.242,0.029h-0.155
						c-0.026,0-0.061-0.004-0.106-0.01c-0.045-0.007-0.081-0.004-0.106,0.01c-0.064,0.012-0.174,0.019-0.329,0.019
						c-0.155,0-0.265-0.008-0.329-0.019h-0.194c-0.09-0.026-0.184-0.036-0.281-0.029c-0.097,0.006-0.184-0.004-0.261-0.029
						c-0.065,0-0.123-0.003-0.174-0.01c-0.052-0.006-0.11-0.016-0.174-0.029c-0.155-0.038-0.316-0.07-0.484-0.096
						c-0.168-0.026-0.323-0.065-0.465-0.117c-0.632-0.206-1.188-0.467-1.665-0.783c-0.478-0.316-0.878-0.732-1.2-1.25
						c-0.207-0.309-0.368-0.677-0.484-1.104c-0.026-0.076-0.042-0.154-0.048-0.232c-0.007-0.076-0.022-0.16-0.048-0.251
						c-0.026-0.103-0.045-0.229-0.058-0.378c-0.013-0.148,0.013-0.262,0.078-0.338c0.065-0.103,0.158-0.165,0.281-0.185
						c0.123-0.02,0.261-0.029,0.416-0.029h1.22c0.104,0,0.213,0,0.329,0c0.116,0,0.22,0.02,0.31,0.058
						c0.142,0.065,0.226,0.172,0.251,0.32c0.026,0.148,0.071,0.3,0.136,0.455c0.051,0.154,0.116,0.297,0.193,0.426
						c0.078,0.129,0.162,0.252,0.252,0.367c0.064,0.078,0.136,0.149,0.213,0.214c0.078,0.064,0.155,0.122,0.232,0.174
						c0.284,0.181,0.632,0.329,1.045,0.445c0.09,0.026,0.177,0.039,0.262,0.039c0.084,0,0.177,0.013,0.281,0.038h0.097
						c0.103,0.026,0.245,0.039,0.426,0.039c0.181,0,0.323-0.013,0.426-0.039c0.038-0.012,0.103-0.02,0.193-0.02
						c0.064-0.012,0.132-0.021,0.204-0.028c0.071-0.007,0.138-0.022,0.203-0.048c0.439-0.117,0.787-0.271,1.046-0.465
						c0.258-0.193,0.439-0.517,0.542-0.969c0.026-0.09,0.029-0.193,0.01-0.31c-0.019-0.116-0.042-0.206-0.067-0.271
						c-0.129-0.35-0.349-0.62-0.659-0.814c-0.039-0.025-0.11-0.064-0.213-0.115c-0.193-0.116-0.41-0.21-0.648-0.281
						c-0.239-0.07-0.475-0.145-0.707-0.223c-0.09-0.025-0.177-0.049-0.261-0.067c-0.084-0.02-0.178-0.042-0.281-0.067
						c-0.207-0.064-0.416-0.119-0.629-0.165c-0.213-0.046-0.416-0.101-0.61-0.165c-0.064-0.025-0.116-0.039-0.155-0.039
						c-0.039,0-0.084-0.012-0.136-0.038c-0.103-0.026-0.197-0.052-0.281-0.077c-0.084-0.025-0.177-0.052-0.281-0.078
						c-0.297-0.103-0.581-0.209-0.852-0.318c-0.271-0.11-0.523-0.236-0.755-0.379c-0.297-0.193-0.568-0.418-0.813-0.677
						c-0.246-0.259-0.439-0.556-0.581-0.892c-0.052-0.115-0.09-0.234-0.116-0.357c-0.026-0.123-0.058-0.255-0.097-0.397
						c-0.026-0.117-0.045-0.284-0.058-0.504c-0.013-0.219-0.007-0.4,0.02-0.542c0.013-0.052,0.019-0.129,0.019-0.232
						c0.039-0.142,0.071-0.277,0.097-0.407c0.025-0.129,0.064-0.258,0.116-0.387c0.193-0.451,0.442-0.836,0.745-1.152
						c0.303-0.316,0.655-0.604,1.055-0.861c0.258-0.154,0.536-0.277,0.832-0.367c0.297-0.091,0.613-0.175,0.949-0.252
						c0.129-0.026,0.255-0.042,0.378-0.049c0.123-0.006,0.248-0.022,0.378-0.049c0.039-0.012,0.1-0.012,0.184,0
						C282.858,78.597,282.912,78.591,282.939,78.563z"/>
				</g>
			</g>
		</g>
		<g>
			<path style="fill:#FFD800;" d="M153.791,99.803c0,3.081-2.498,5.577-5.578,5.577h-33.932c-3.08,0-5.576-2.496-5.576-5.577v-33.93
				c0-3.081,2.496-5.577,5.576-5.577h33.932c3.08,0,5.578,2.496,5.578,5.577V99.803z"/>
			<g>
				<path style="fill:#282727;" d="M142.404,70.862l-6.578,4.285l-13.512-5.114l-2.035,1.257l10.531,7.237l-11.623,7.428
					l-4.826-2.248l-0.512,0.671l6.469,6.879l25.84-14.314c1.68-1.036,2.199-3.238,1.164-4.917
					C146.285,70.346,144.084,69.826,142.404,70.862z"/>
				<path style="fill:#282727;" d="M148.354,96.803c0,0.457-0.371,0.829-0.83,0.829h-32.889c-0.457,0-0.828-0.372-0.828-0.829l0,0
					c0-0.459,0.371-0.831,0.828-0.831h32.889C147.982,95.972,148.354,96.344,148.354,96.803L148.354,96.803z"/>
			</g>
		</g>
	</g>
</g>
<g>
	<g>
		<g>
			<g>
				<path style="fill:#373636;" d="M131.151,385.006c0,4.544,3.686,8.23,8.234,8.23c4.547,0,8.23-3.686,8.23-8.23
					c0-4.553-3.683-8.234-8.23-8.234C134.837,376.771,131.151,380.453,131.151,385.006z"/>
				<path style="fill:#373636;" d="M89.791,385.006c0,4.544,3.688,8.23,8.236,8.23c4.546,0,8.231-3.686,8.231-8.23
					c0-4.553-3.685-8.234-8.231-8.234C93.479,376.771,89.791,380.453,89.791,385.006z"/>
			</g>
			<g>
				<rect x="139.246" y="254.58" style="fill:#373636;" width="7.122" height="34.304"/>
				<rect x="91.04" y="254.58" style="fill:#373636;" width="7.119" height="34.304"/>
			</g>
			<path style="fill:#95C11F;" d="M74.203,374.221c0,5.897,4.782,10.681,10.68,10.681h67.643c5.898,0,10.678-4.783,10.678-10.681
				v-89c0-5.907-4.779-10.684-10.678-10.684H84.882c-5.897,0-10.68,4.776-10.68,10.684V374.221z"/>
			<path style="fill:#95C11F;" d="M82.211,250.739c0,3.175,2.571,5.743,5.74,5.743h61.504c3.17,0,5.741-2.568,5.741-5.743l0,0
				c0-3.163-2.571-5.73-5.741-5.73H87.951C84.781,245.009,82.211,247.576,82.211,250.739L82.211,250.739z"/>
			<g>
				<g>
					<path style="fill:#9D9D9C;" d="M133.833,372.438c0,3.193,2.593,5.781,5.784,5.781l0,0c3.199,0,5.789-2.588,5.789-5.781v-84.998
						c0-3.192-2.59-5.785-5.789-5.785l0,0c-3.191,0-5.784,2.593-5.784,5.785V372.438z"/>
					<path style="fill:#9D9D9C;" d="M92.003,372.438c0,3.193,2.592,5.781,5.786,5.781l0,0c3.198,0,5.786-2.588,5.786-5.781v-84.998
						c0-3.192-2.588-5.785-5.786-5.785l0,0c-3.194,0-5.786,2.593-5.786,5.785V372.438z"/>
				</g>
			</g>
		</g>
		<g>
			<g>
				<g>
					<path style="fill:#373636;" d="M146.946,383.871c0-3.755-3.043-6.79-6.792-6.79c-3.752,0-6.795,3.035-6.795,6.79
						c0,3.752,3.043,6.791,6.795,6.791C143.903,390.662,146.946,387.623,146.946,383.871z"/>
					<path style="fill:#373636;" d="M204.467,383.871c0-3.755-3.039-6.79-6.79-6.79c-3.752,0-6.792,3.035-6.792,6.79
						c0,3.752,3.04,6.791,6.792,6.791C201.427,390.662,204.467,387.623,204.467,383.871z"/>
				</g>
				<g>
					<g>
						<rect x="182.77" y="300.123" style="fill:#373636;" width="5.874" height="20.652"/>
						<rect x="149.18" y="300.123" style="fill:#373636;" width="5.88" height="20.652"/>
					</g>
					<path style="fill:#4575BA;" d="M141.803,300.305c0,2.355,1.91,4.268,4.264,4.268h45.694c2.353,0,4.268-1.912,4.268-4.268l0,0
						c0-2.357-1.915-4.264-4.268-4.264h-45.694C143.713,296.041,141.803,297.947,141.803,300.305L141.803,300.305z"/>
				</g>
				<path style="fill:#4575BA;" d="M205.634,384.117c4.869,0,8.813-3.943,8.813-8.81v-55.812c0-4.869-3.944-8.82-8.813-8.82h-73.442
					c-4.864,0-8.809,3.951-8.809,8.82v55.812c0,4.866,3.945,8.81,8.809,8.81H205.634z"/>
				<g>
					<g>
						<path style="fill:#2A4770;" d="M203.981,334.912c2.639,0,4.774-2.132,4.774-4.773l0,0c0-2.633-2.136-4.769-4.774-4.769
							h-70.133c-2.637,0-4.774,2.136-4.774,4.769l0,0c0,2.642,2.137,4.773,4.774,4.773H203.981z"/>
						<path style="fill:#2A4770;" d="M203.981,369.432c2.639,0,4.774-2.135,4.774-4.769l0,0c0-2.638-2.136-4.772-4.774-4.772
							h-70.133c-2.637,0-4.774,2.135-4.774,4.772l0,0c0,2.634,2.137,4.769,4.774,4.769H203.981z"/>
					</g>
				</g>
			</g>
		</g>
	</g>
	<g>
		<path style="fill:#481E0F;" d="M275.382,166.403c0-0.008,0-0.014,0-0.023l0,0c0-0.005,0-0.011-0.001-0.016h0.001
			c0-1.859-1.151-3.449-2.78-4.098c1.297-1.171,1.826-3.061,1.193-4.801l-0.005-0.013c-0.63-1.754-2.253-2.861-4.007-2.919
			c0.806-1.526,0.667-3.453-0.502-4.866c-0.01-0.015-0.061-0.074-0.072-0.088c-1.198-1.415-3.087-1.872-4.739-1.315
			c0.252-1.734-0.552-3.527-2.164-4.455l-0.053-0.032c-1.612-0.926-3.55-0.715-4.918,0.378c-0.361-1.738-1.762-3.158-3.614-3.456
			c-1.824-0.321-3.585,0.528-4.509,2.013c-0.927-1.48-2.691-2.325-4.514-2.001l-0.063,0.013c-1.828,0.327-3.171,1.734-3.516,3.447
			c-1.383-1.09-3.349-1.288-4.962-0.343l-0.025,0.014c-1.61,0.929-2.415,2.722-2.164,4.455c-1.663-0.541-3.562-0.054-4.751,1.366
			l-0.012,0.015c-1.2,1.418-1.35,3.374-0.527,4.92c-1.728,0.061-3.331,1.139-3.975,2.859c-0.007,0.02-0.035,0.098-0.043,0.115
			c-0.628,1.748-0.078,3.619,1.24,4.773c-1.633,0.647-2.789,2.247-2.789,4.107v0.045c0,1.864,1.157,3.439,2.794,4.075
			c-1.318,1.17-1.858,3.072-1.221,4.824l0.004,0.016c0.628,1.75,2.249,2.855,3.998,2.916c-0.81,1.529-0.672,3.46,0.499,4.876
			c0.011,0.013,0.062,0.074,0.071,0.086c1.196,1.414,3.082,1.873,4.733,1.318c-0.258,1.737,0.545,3.534,2.161,4.465l0.053,0.033
			c1.609,0.924,3.543,0.714,4.911-0.374c0.353,1.715,1.714,3.127,3.543,3.453l0.061,0.012c1.83,0.328,3.586-0.531,4.501-2.027
			c0.79,1.285,2.206,2.1,3.751,2.1c0.258,0,0.52-0.022,0.78-0.069l0.063-0.012c1.824-0.327,3.167-1.731,3.514-3.437
			c1.383,1.095,3.355,1.293,4.969,0.349l0.026-0.016c1.609-0.927,2.412-2.713,2.163-4.444c1.665,0.543,3.569,0.059,4.761-1.363
			l0.013-0.017c1.198-1.415,1.348-3.366,0.531-4.912c1.73-0.056,3.339-1.138,3.984-2.86c0.007-0.018,0.036-0.096,0.043-0.115
			c0.626-1.741,0.082-3.602-1.224-4.757c1.633-0.646,2.787-2.238,2.787-4.102v-0.063
			C275.382,166.436,275.382,166.421,275.382,166.403z"/>
		<g>
			<polygon style="fill:#8E5133;" points="252.864,192.721 248.026,197.165 243.561,192.721 243.561,183.741 252.864,183.741 			"/>
			<g>
				<path style="fill:#8E5133;" d="M264.967,173.335c0,0,0.515,0,0.686,0c0.695,0,1.184-1.207,1.389-1.809
					c0.456-1.339,0.654-2.404,0.723-2.989c0.085-0.743-0.144-2.018-1.095-2.018c-1.09,0-1.703,1.112-1.703,1.112V173.335z"/>
				<path style="fill:#8E5133;" d="M231.628,173.335c0,0-0.514,0-0.684,0c-0.695,0-1.184-1.207-1.389-1.809
					c-0.456-1.339-0.656-2.404-0.723-2.989c-0.087-0.743,0.142-2.018,1.094-2.018c1.091,0,1.702,1.112,1.702,1.112V173.335z"/>
			</g>
			<path style="fill:#8E5133;" d="M265.417,157.774c0,0-0.529-6.139-6.444-10.207c-2.343-1.61-6.22-2.854-10.517-2.803v-0.001
				c-0.019,0-0.038,0.001-0.057,0.001c-0.02,0-0.039-0.001-0.058-0.001v0.001c-0.012,0-0.023,0-0.035,0c-0.012,0-0.023,0-0.035,0
				v-0.001c-0.02,0-0.038,0.001-0.058,0.001c-0.019,0-0.037-0.001-0.057-0.001v0.001c-4.297-0.051-8.173,1.192-10.516,2.803
				c-5.916,4.068-6.446,10.207-6.446,10.207s-2.454,10.197,1.795,19.49c0.726,1.588,1.835,5.073,6.86,9.324
				c3.311,2.799,5.665,3.74,8.422,3.74c0.012,0,0.023-0.003,0.035-0.003c0.012,0,0.024,0.003,0.035,0.003
				c2.756,0,5.111-0.941,8.423-3.74c5.025-4.251,6.134-7.736,6.858-9.324C267.871,167.972,265.417,157.774,265.417,157.774z"/>
			<g>
				<g>
					<g>
						<path style="fill:#F4F2F3;" d="M267.522,173.255c0,0.773-0.626,1.398-1.4,1.398c-0.772,0-1.399-0.625-1.399-1.398
							c0-0.771,0.628-1.4,1.399-1.4C266.895,171.854,267.522,172.483,267.522,173.255z"/>
					</g>
					<g>
						<path style="fill:#F4F2F3;" d="M232.126,173.255c0,0.773-0.627,1.398-1.4,1.398c-0.772,0-1.399-0.625-1.399-1.398
							c0-0.771,0.627-1.4,1.399-1.4C231.499,171.854,232.126,172.483,232.126,173.255z"/>
					</g>
				</g>
			</g>
		</g>
		<g>
			<g>
				<polygon style="fill:#8E5133;" points="267.744,273.073 262.531,387.446 253.49,387.446 247.788,273.073 				"/>
				<polygon style="fill:#E52A1E;" points="262.579,387.23 253.435,387.23 253.435,393.236 276.995,393.236 276.995,391.679 				"/>
			</g>
			<g>
				<polygon style="fill:#8E5133;" points="228.854,273.073 234.066,387.446 243.107,387.446 248.809,273.073 				"/>
				<polygon style="fill:#E52A1E;" points="234.018,387.23 243.163,387.23 243.163,393.236 219.603,393.236 219.603,391.679 				"/>
			</g>
		</g>
		<g>
			<g>
				<g>
					<polygon style="fill:#8E5133;" points="262.286,194.628 269.514,197.811 276.377,243.313 268.478,243.703 264.78,214.344 					
						"/>
					<polygon style="fill:#8E5133;" points="276.377,243.313 275.264,277.972 269.772,277.972 268.478,243.703 					"/>
				</g>
				<g>
					<path style="fill:#8E5133;" d="M270.379,282.998c0-0.472-0.382-0.854-0.853-0.854l0,0c-0.47,0-0.853,0.383-0.853,0.854v7.036
						c0,0.471,0.383,0.854,0.853,0.854l0,0c0.47,0,0.853-0.383,0.853-0.854V282.998z"/>
					<path style="fill:#8E5133;" d="M269.379,280.229c0.332-0.485,0.306-2.366-0.539-2.723l-2.739,3.965
						c-0.332,0.486-0.214,1.096,0.265,1.363l0,0c0.477,0.267,1.136,0.091,1.468-0.396L269.379,280.229z"/>
					<path style="fill:#8E5133;" d="M272.255,283.014c0-0.469-0.381-0.852-0.851-0.852l0,0c-0.472,0-0.853,0.383-0.853,0.852v8.121
						c0,0.47,0.381,0.853,0.853,0.853l0,0c0.47,0,0.851-0.383,0.851-0.853V283.014z"/>
					<path style="fill:#8E5133;" d="M274.132,282.998c0-0.472-0.382-0.854-0.853-0.854l0,0c-0.471,0-0.852,0.383-0.852,0.854v7.48
						c0,0.473,0.382,0.853,0.852,0.853l0,0c0.471,0,0.853-0.381,0.853-0.853V282.998z"/>
					<path style="fill:#8E5133;" d="M275.672,282.841c0-0.375-0.303-0.679-0.678-0.679l0,0c-0.376,0-0.68,0.304-0.68,0.679v5.876
						c0,0.375,0.304,0.679,0.68,0.679l0,0c0.375,0,0.678-0.304,0.678-0.679V282.841z"/>
					<path style="fill:#8E5133;" d="M268.673,284.404v-6.423c0-0.43,0.303-0.781,0.678-0.781h5.644c0.375,0,0.677,0.352,0.677,0.781
						v6.423H268.673z"/>
				</g>
			</g>
			<g>
				<g>
					<polygon style="fill:#8E5133;" points="234.312,194.628 227.085,197.811 220.22,243.313 228.12,243.703 231.817,214.344 					
						"/>
					<polygon style="fill:#8E5133;" points="220.22,243.313 221.333,277.972 226.826,277.972 228.12,243.703 					"/>
				</g>
				<g>
					<path style="fill:#8E5133;" d="M226.218,282.998c0-0.472,0.381-0.854,0.852-0.854l0,0c0.471,0,0.853,0.383,0.853,0.854v7.036
						c0,0.471-0.382,0.854-0.853,0.854l0,0c-0.472,0-0.852-0.383-0.852-0.854V282.998z"/>
					<path style="fill:#8E5133;" d="M227.219,280.229c-0.333-0.485-0.306-2.366,0.538-2.723l2.739,3.965
						c0.333,0.486,0.214,1.096-0.264,1.363l0,0c-0.479,0.267-1.136,0.091-1.468-0.396L227.219,280.229z"/>
					<path style="fill:#8E5133;" d="M224.342,283.014c0-0.469,0.381-0.852,0.851-0.852l0,0c0.472,0,0.853,0.383,0.853,0.852v8.121
						c0,0.47-0.381,0.853-0.853,0.853l0,0c-0.47,0-0.851-0.383-0.851-0.853V283.014z"/>
					<path style="fill:#8E5133;" d="M222.464,282.998c0-0.472,0.382-0.854,0.854-0.854l0,0c0.471,0,0.852,0.383,0.852,0.854v7.48
						c0,0.473-0.381,0.853-0.852,0.853l0,0c-0.471,0-0.854-0.381-0.854-0.853V282.998z"/>
					<path style="fill:#8E5133;" d="M220.924,282.841c0-0.375,0.304-0.679,0.679-0.679l0,0c0.376,0,0.68,0.304,0.68,0.679v5.876
						c0,0.375-0.304,0.679-0.68,0.679l0,0c-0.375,0-0.679-0.304-0.679-0.679V282.841z"/>
					<path style="fill:#8E5133;" d="M227.923,284.404v-6.423c0-0.43-0.303-0.781-0.677-0.781h-5.644
						c-0.374,0-0.678,0.352-0.678,0.781v6.423H227.923z"/>
				</g>
			</g>
		</g>
		<polygon style="fill:#E52A1E;" points="232.213,212.458 234.312,194.628 227.085,197.811 224.819,209.503 		"/>
		<polygon style="fill:#E52A1E;" points="264.383,212.458 262.286,194.628 269.513,197.811 271.779,209.503 		"/>
		<polygon style="fill:#E52A1E;" points="262.19,242.877 264.647,216.854 264.647,196.004 262.186,194.628 252.864,192.721 
			248.095,196.388 243.561,192.721 234.413,194.628 231.741,195.759 232.28,210.684 234.408,242.877 228.851,273.073 
			248.095,273.073 248.504,273.073 267.747,273.073 		"/>
		<polygon style="fill:#2D292E;" points="262.467,244.383 234.13,244.383 228.851,273.073 228.854,273.073 234.066,387.446 
			243.107,387.446 248.299,283.325 253.49,387.446 262.531,387.446 267.744,273.073 267.747,273.073 		"/>
		<path style="fill:#652C1E;" d="M266.387,163.059c-0.15-3.298-0.68-5.499-0.68-5.499s-0.538-6.253-6.564-10.396
			c-2.387-1.641-6.336-2.908-10.714-2.855v-0.003c-0.02,0-0.039,0.003-0.058,0.003c-0.02,0-0.039-0.003-0.06-0.003v0.003
			c-0.012,0-0.023,0-0.035,0s-0.024,0-0.036,0v-0.003c-0.02,0-0.038,0.003-0.059,0.003c-0.019,0-0.038-0.003-0.058-0.003v0.003
			c-4.378-0.053-8.327,1.215-10.713,2.855c-6.026,4.144-6.566,10.396-6.566,10.396s-0.521,2.178-0.675,5.445
			c0.015-0.005,0.032-0.006,0.046-0.013c-1.225,0.464-2.101,1.638-2.101,3.025c0,1.789,1.451,3.24,3.241,3.24
			c1.79,0,3.242-1.451,3.242-3.24c0-0.267-0.042-0.521-0.103-0.767c0.386,0.159,0.807,0.251,1.252,0.251
			c1.789,0,3.24-1.452,3.24-3.241c0-0.113-0.021-0.218-0.032-0.327c0.423,0.203,0.893,0.327,1.394,0.327
			c1.186,0,2.211-0.645,2.775-1.594c0.587,0.588,1.398,0.949,2.293,0.949c1.199,0,2.234-0.659,2.795-1.63
			c0.561,0.971,1.596,1.63,2.797,1.63c0.895,0,1.704-0.361,2.291-0.949c0.565,0.949,1.591,1.594,2.776,1.594
			c0.5,0,0.97-0.124,1.392-0.327c-0.01,0.109-0.032,0.214-0.032,0.327c0,1.789,1.451,3.241,3.241,3.241
			c0.444,0,0.865-0.092,1.251-0.251c-0.06,0.246-0.102,0.5-0.102,0.767c0,1.789,1.451,3.24,3.241,3.24
			c1.79,0,3.241-1.451,3.241-3.24C268.31,164.696,267.519,163.565,266.387,163.059z"/>
		<polygon style="fill:#5A5C66;" points="263.021,247.392 263.021,247.392 262.19,242.877 262.233,242.421 234.364,242.421 
			234.408,242.877 233.577,247.392 		"/>
	</g>
</g>
</svg>
